<svg width="25" height="25" viewBox="0 0 25 25" fill="none" xmlns="http://www.w3.org/2000/svg">
<g clip-path="url(#clip0_68_2)">
<path d="M8.43373 0H2.10843C0.943978 0 0 0.943978 0 2.10843V8.43373C0 9.59819 0.943978 10.5422 2.10843 10.5422H8.43373C9.59819 10.5422 10.5422 9.59819 10.5422 8.43373V2.10843C10.5422 0.943978 9.59819 0 8.43373 0Z" fill="#666666"/>
<path d="M22.8916 14.4578H16.5663C15.4018 14.4578 14.4578 15.4018 14.4578 16.5663V22.8916C14.4578 24.056 15.4018 25 16.5663 25H22.8916C24.056 25 25 24.056 25 22.8916V16.5663C25 15.4018 24.056 14.4578 22.8916 14.4578Z" fill="#666666"/>
<path d="M0 16.5663C0 15.4018 0.943979 14.4578 2.10843 14.4578H8.43374C9.59819 14.4578 10.5422 15.4018 10.5422 16.5663V22.8916C10.5422 24.056 9.59819 25 8.43374 25H2.10843C0.943979 25 0 24.056 0 22.8916V16.5663Z" fill="#666666"/>
<path d="M22.8916 0H16.5663C15.4018 0 14.4578 0.943978 14.4578 2.10843V8.43373C14.4578 9.59819 15.4018 10.5422 16.5663 10.5422H22.8916C24.056 10.5422 25 9.59819 25 8.43373V2.10843C25 0.943978 24.056 0 22.8916 0Z" fill="#666666"/>
</g>
<defs>
<clipPath id="clip0_68_2">
<rect width="25" height="25" fill="white"/>
</clipPath>
</defs>
</svg>
