<svg width="3" height="5" viewBox="0 0 3 5" fill="none" xmlns="http://www.w3.org/2000/svg">
<path d="M2.86297 0.363551L2.54486 0.0454439C2.51977 0.0203459 2.47907 0.0203459 2.45398 0.0454439L0.0454506 2.45397C0.0203527 2.47907 0.0203526 2.51976 0.0454506 2.54486L0.363558 2.86296C0.388656 2.88806 0.429348 2.88806 0.454446 2.86296L2.86297 0.454439C2.88807 0.429341 2.88807 0.388649 2.86297 0.363551Z" fill="#D9D9D9"/>
<path d="M0.363551 2.13586L0.0454439 2.45397C0.0203459 2.47907 0.0203459 2.51976 0.0454439 2.54486L2.45397 4.95338C2.47907 4.97848 2.51976 4.97848 2.54486 4.95338L2.86296 4.63527C2.88806 4.61018 2.88806 4.56948 2.86296 4.54439L0.454439 2.13586C0.429341 2.11076 0.388649 2.11076 0.363551 2.13586Z" fill="#D9D9D9"/>
</svg>
