<svg width="3" height="5" viewBox="0 0 3 5" fill="none" xmlns="http://www.w3.org/2000/svg">
<path d="M0.136541 4.63587L0.454648 4.95398C0.479746 4.97907 0.520437 4.97907 0.545535 4.95398L2.95406 2.54545C2.97916 2.52035 2.97916 2.47966 2.95406 2.45456L2.63595 2.13646C2.61086 2.11136 2.57016 2.11136 2.54507 2.13646L0.136541 4.54498C0.111443 4.57008 0.111443 4.61077 0.136541 4.63587Z" fill="#D9D9D9"/>
<path d="M2.63596 2.86356L2.95407 2.54545C2.97917 2.52035 2.97917 2.47966 2.95407 2.45456L0.545543 0.0460384C0.520444 0.0209403 0.479753 0.0209404 0.454655 0.0460384L0.136548 0.364146C0.11145 0.389244 0.11145 0.429935 0.136548 0.455033L2.54507 2.86356C2.57017 2.88866 2.61086 2.88866 2.63596 2.86356Z" fill="#D9D9D9"/>
</svg>
