<svg width="39" height="37" viewBox="0 0 39 37" fill="none" xmlns="http://www.w3.org/2000/svg">
<path d="M19.5 37C30.2696 37 39 28.7173 39 18.5C39 8.28273 30.2696 0 19.5 0C8.73045 0 0 8.28273 0 18.5C0 28.7173 8.73045 37 19.5 37Z" fill="#2E3148"/>
<path d="M19.5 29.2346C25.749 29.2346 30.8148 24.4286 30.8148 18.5C30.8148 12.5715 25.749 7.76541 19.5 7.76541C13.251 7.76541 8.18516 12.5715 8.18516 18.5C8.18516 24.4286 13.251 29.2346 19.5 29.2346Z" fill="#1B1E36"/>
<path d="M19.5401 2.36016C17.4352 2.36016 15.7284 9.60328 15.7284 18.5382C15.7284 27.4731 17.4352 34.7162 19.5401 34.7162C21.645 34.7162 23.3518 27.4731 23.3518 18.5382C23.3518 9.60328 21.645 2.36016 19.5401 2.36016ZM19.8033 33.8032C19.5626 34.1078 19.3218 33.8793 19.3218 33.8793C18.3525 32.8137 17.8678 30.834 17.8678 30.834C16.1722 25.6571 16.5758 14.5419 16.5758 14.5419C17.3726 5.71754 18.8222 3.63296 19.3155 3.17016C19.3658 3.12293 19.4321 3.09406 19.5027 3.08865C19.5733 3.08323 19.6437 3.10162 19.7014 3.14056C20.4171 3.62171 21.0174 5.63392 21.0174 5.63392C22.79 11.8767 22.6295 17.7388 22.6295 17.7388C22.79 22.8397 21.7413 28.5495 21.7413 28.5495C20.934 32.8889 19.8033 33.8032 19.8033 33.8032Z" fill="#6F7390"/>
<path d="M34.3312 10.4871C33.2832 8.75435 25.8122 10.9545 17.6392 15.4007C9.46624 19.8469 3.7011 24.8563 4.74833 26.5884C5.79556 28.3204 13.2673 26.121 21.4403 21.6748C29.6133 17.2285 35.3785 12.2192 34.3312 10.4871ZM5.71522 26.3507C5.31398 26.3027 5.40462 25.9898 5.40462 25.9898C5.8968 24.6621 7.46304 23.278 7.46304 23.278C11.3541 19.3063 21.7182 14.1072 21.7182 14.1072C30.1818 10.3714 32.8107 10.529 33.4776 10.7032C33.5461 10.7213 33.6055 10.7619 33.6455 10.8176C33.6855 10.8734 33.7034 10.9407 33.696 11.0078C33.6158 11.8366 32.071 13.3314 32.071 13.3314C27.2487 17.8985 21.8088 20.6842 21.8088 20.6842C17.2251 23.3556 11.4827 25.3327 11.4827 25.3327C7.11329 26.8265 5.71522 26.3507 5.71522 26.3507Z" fill="#6F7390"/>
<path d="M34.2943 26.6461C35.3504 24.9179 29.5998 19.8856 21.4555 15.4059C13.3112 10.9262 5.84111 8.69885 4.78592 10.43C3.73074 12.1612 9.48043 17.1905 17.6294 21.6702C25.7784 26.1498 33.2391 28.3774 34.2943 26.6461ZM5.48574 11.0978C5.32974 10.7469 5.65906 10.6624 5.65906 10.6624C7.11703 10.4011 9.165 10.9964 9.165 10.9964C14.7365 12.2001 24.6714 18.1041 24.6714 18.1041C32.3205 23.1821 33.4937 25.4189 33.6695 26.0538C33.6874 26.1189 33.6804 26.1879 33.6499 26.2487C33.6193 26.3094 33.5672 26.3579 33.5026 26.3857C32.7049 26.7322 30.5687 26.216 30.5687 26.216C23.9844 24.5411 18.7186 21.4723 18.7186 21.4723C13.9873 19.0513 9.30883 15.3261 9.30883 15.3261C5.7539 12.4865 5.48683 11.1016 5.48683 11.1016L5.48574 11.0978Z" fill="#6F7390"/>
<path d="M19.5 20.4033C20.608 20.4033 21.5062 19.5512 21.5062 18.5C21.5062 17.4489 20.608 16.5967 19.5 16.5967C18.392 16.5967 17.4938 17.4489 17.4938 18.5C17.4938 19.5512 18.392 20.4033 19.5 20.4033Z" fill="#B7B9C8"/>
<path d="M27.7253 12.3333C28.3679 12.3333 28.8889 11.822 28.8889 11.1913C28.8889 10.5606 28.3679 10.0493 27.7253 10.0493C27.0826 10.0493 26.5617 10.5606 26.5617 11.1913C26.5617 11.822 27.0826 12.3333 27.7253 12.3333Z" fill="#B7B9C8"/>
<path d="M8.62649 16.2161C9.26913 16.2161 9.79009 15.7048 9.79009 15.0741C9.79009 14.4434 9.26913 13.9321 8.62649 13.9321C7.98385 13.9321 7.46288 14.4434 7.46288 15.0741C7.46288 15.7048 7.98385 16.2161 8.62649 16.2161Z" fill="#B7B9C8"/>
<path d="M17.1327 30.2243C17.7753 30.2243 18.2963 29.713 18.2963 29.0823C18.2963 28.4516 17.7753 27.9403 17.1327 27.9403C16.4901 27.9403 15.9691 28.4516 15.9691 29.0823C15.9691 29.713 16.4901 30.2243 17.1327 30.2243Z" fill="#B7B9C8"/>
</svg>
